<?xml version="1.0" encoding="utf-8"?>
<!-- Generator: Adobe Illustrator 19.1.0, SVG Export Plug-In . SVG Version: 6.00 Build 0)  -->
<svg version="1.1" id="Layer_1" xmlns="http://www.w3.org/2000/svg" xmlns:xlink="http://www.w3.org/1999/xlink" x="0px" y="0px"
	 viewBox="-375 95 100 125" style="enable-background:new -375 95 100 125;" xml:space="preserve">
<g>
	<path d="M-352,132.5L-352,132.5l66.5,0h1.7h3.7v-2.2h-4.8c-1.9-4.4-1.9-9.4-0.2-13.9h5v-2.2h-4h-1.7H-352v0c-5,0-9,4.1-9,9.1
		C-361,128.4-357,132.5-352,132.5z M-352,116.5h65.3c-1.6,4.4-1.6,9.4,0.2,13.9H-352c0,0-2.5-2.4-2.5-6.9
		C-354.5,118.9-352,116.5-352,116.5z"/>
	<path d="M-280,166.6c0-5-4-9-9-9.1v0h-66.2h-1.7h-4v2.2h5c1.7,4.4,1.7,9.5-0.2,13.9h-4.8v2.2h3.7h1.7h66.5v0
		C-284,175.6-280,171.6-280,166.6z M-289.1,173.5h-65.4c1.7-4.4,1.8-9.4,0.2-13.9h65.3c0,0,2.5,2.4,2.5,6.9
		C-286.6,171.1-289.1,173.5-289.1,173.5z"/>
	<path d="M-294.5,153.9h1.7h3.7v-2.2h-4.8c-1.9-4.4-1.9-9.4-0.2-13.9h5v-2.2h-4h-1.7H-361v0c-5,0-9,4.1-9,9.1c0,5,4,9,9,9.1v0
		H-294.5z M-360.9,137.9h65.3c-1.6,4.4-1.6,9.4,0.2,13.9h-65.4c0,0-2.5-2.4-2.5-6.9C-363.4,140.3-360.9,137.9-360.9,137.9z"/>
</g>
</svg>
