<?xml version="1.0" encoding="utf-8"?>
<!-- Generator: Adobe Illustrator 19.1.0, SVG Export Plug-In . SVG Version: 6.00 Build 0)  -->
<svg version="1.1" id="Layer_1" xmlns:sketch="http://www.bohemiancoding.com/sketch/ns"
	 xmlns="http://www.w3.org/2000/svg" xmlns:xlink="http://www.w3.org/1999/xlink" x="0px" y="0px" viewBox="-375 95 100 125"
	 style="enable-background:new -375 95 100 125;" xml:space="preserve">
<title>eye-fill 31</title>
<desc>Created with Sketch.</desc>
<g sketch:type="MSPage">
	<path sketch:type="MSShapeGroup" d="M-304.5,162.4c-3.1-4.9-7.9-8.5-13.3-10.3c2.8-2.2,4.7-5.6,4.7-9.5c0-6.6-5.4-12.1-12.1-12.1
		c-6.6,0-12.1,5.4-12.1,12.1c0,3.9,1.9,7.3,4.7,9.5c-5.4,1.7-10.2,5.3-13.3,10.3c-4-4.7-6.5-10.8-6.5-17.5c0-15,12.2-27.1,27.1-27.1
		c15,0,27.1,12.2,27.1,27.1C-298,151.6-300.5,157.7-304.5,162.4 M-333.4,142.6c0-4.6,3.7-8.3,8.3-8.3c4.6,0,8.3,3.7,8.3,8.3
		c0,4.6-3.7,8.3-8.3,8.3C-329.7,150.9-333.4,147.2-333.4,142.6 M-325.1,172c-6.9,0-13.2-2.6-18-6.9c0-0.1,0.1-0.1,0.2-0.2
		c3.7-6.3,10.5-10.2,17.8-10.2c7.3,0,14.1,3.9,17.8,10.2c0,0.1,0.1,0.1,0.2,0.2C-311.9,169.4-318.2,172-325.1,172 M-325.1,114
		c-17,0-30.9,13.8-30.9,30.9c0,17,13.8,30.9,30.9,30.9c17,0,30.9-13.8,30.9-30.9C-294.3,127.8-308.1,114-325.1,114"/>
</g>
</svg>
